<?xml version="1.0" standalone="no"?>
<!DOCTYPE svg PUBLIC "-//W3C//DTD SVG 20010904//EN"
 "http://www.w3.org/TR/2001/REC-SVG-20010904/DTD/svg10.dtd">
<svg version="1.0" xmlns="http://www.w3.org/2000/svg"
 width="3072.000000pt" height="3072.000000pt" viewBox="0 0 3072.000000 3072.000000"
 preserveAspectRatio="xMidYMid meet">
<metadata>
Created by potrace 1.14, written by Peter Selinger 2001-2017
</metadata>
<g transform="translate(0.000000,3072.000000) scale(0.100000,-0.100000)"
fill="#000000" stroke="none">
<path d="M12074 22887 c-1804 -1063 -4052 -2386 -4996 -2942 -944 -555 -1714
-1013 -1712 -1016 2 -4 223 -136 491 -294 l488 -288 1 -67 c1 -42 9 -83 21
-111 11 -24 18 -50 15 -57 -2 -7 4 -22 14 -33 9 -10 13 -19 9 -19 -5 0 4 -13
20 -30 24 -25 26 -30 11 -30 -16 0 -17 -2 -5 -16 11 -14 10 -19 -11 -38 -14
-11 -25 -25 -25 -31 0 -5 -16 -39 -34 -75 -31 -58 -35 -74 -35 -146 0 -66 5
-90 26 -135 31 -66 39 -97 26 -105 -5 -4 2 -18 16 -33 l26 -27 -25 -24 c-19
-18 -22 -26 -13 -37 8 -10 7 -18 -4 -31 -9 -9 -28 -41 -43 -71 -32 -63 -37
-169 -12 -240 8 -24 13 -57 10 -75 -3 -22 0 -36 11 -46 15 -12 14 -16 -11 -42
-30 -32 -26 -53 16 -74 l21 -11 -21 -19 c-22 -19 -48 -72 -69 -138 -26 -82 -4
-197 60 -302 l18 -32 -29 -28 c-22 -21 -26 -31 -18 -41 6 -7 17 -13 24 -13 7
0 18 -6 24 -13 8 -11 6 -18 -10 -33 -22 -19 -48 -72 -69 -138 -26 -82 -3 -200
59 -301 18 -29 18 -30 -2 -52 -11 -13 -27 -23 -35 -23 -12 0 -12 -4 3 -20 10
-11 24 -20 32 -20 26 0 26 -31 1 -58 -33 -35 -68 -142 -68 -207 0 -65 35 -172
68 -207 28 -31 24 -54 -12 -68 -33 -12 -41 -29 -19 -37 10 -3 26 -13 35 -20
15 -14 15 -17 -2 -46 -46 -76 -62 -123 -67 -192 -7 -93 22 -189 75 -247 24
-26 24 -28 6 -34 -10 -4 -27 -14 -37 -22 -17 -15 -16 -17 13 -47 27 -28 29
-33 15 -45 -8 -7 -15 -17 -15 -23 0 -6 -7 -18 -15 -27 -8 -9 -21 -43 -30 -77
-28 -108 1 -257 63 -325 l25 -27 -26 -10 c-33 -13 -36 -50 -7 -76 14 -13 17
-22 10 -31 -6 -6 -8 -23 -5 -37 4 -16 -1 -40 -15 -67 -33 -65 -31 -178 5 -258
15 -34 34 -67 41 -73 8 -6 11 -21 8 -33 -3 -14 2 -28 15 -40 14 -12 18 -23 12
-30 -5 -6 -11 -25 -13 -41 -2 -17 -19 -61 -38 -99 -30 -61 -34 -77 -34 -150 0
-63 6 -91 22 -126 32 -66 58 -109 78 -131 13 -15 14 -22 5 -33 -9 -11 -9 -15
1 -19 10 -3 9 -8 -3 -23 -9 -10 -15 -27 -14 -37 2 -10 -8 -35 -21 -55 -14 -20
-30 -55 -36 -77 l-11 -41 -489 -288 c-268 -159 -490 -291 -492 -295 -2 -3 967
-577 2153 -1275 1186 -699 3435 -2023 4998 -2944 l2843 -1673 2827 1665 c6198
3648 7158 4215 7160 4223 1 4 -109 73 -245 153 -136 79 -358 210 -494 291
l-246 146 -249 -147 c-136 -82 -2118 -1249 -4403 -2595 -2285 -1346 -4159
-2452 -4165 -2457 -21 -19 56 15 146 65 79 45 684 400 2129 1252 151 89 671
395 1155 680 484 285 1256 740 1715 1010 459 270 1231 725 1715 1010 484 285
1005 592 1158 682 153 90 289 169 302 175 20 9 50 -5 251 -122 126 -73 232
-135 236 -138 7 -8 -8971 -5296 -8992 -5296 -8 0 -1970 1151 -4360 2558 -2390
1408 -4412 2598 -4493 2646 l-148 87 218 128 c120 70 230 135 246 143 15 9 27
19 27 23 0 4 -109 71 -242 149 -134 78 -245 144 -248 147 -3 3 0 7 5 9 15 6
457 261 479 276 17 13 -4 27 -232 158 -138 80 -250 149 -248 154 1 5 113 73
249 150 135 78 246 143 247 146 0 3 -37 26 -83 52 -320 185 -412 239 -415 246
-1 5 110 73 248 152 143 83 246 148 241 153 -5 5 -116 71 -247 147 -131 76
-239 142 -241 146 -1 5 111 74 249 153 200 115 247 147 235 155 -8 6 -121 72
-250 146 -130 74 -235 139 -234 144 3 9 476 286 489 286 27 0 -19 31 -242 160
-138 80 -250 148 -250 151 0 3 112 70 250 150 190 109 247 146 237 155 -6 6
-119 73 -249 149 -131 75 -238 140 -238 144 0 3 113 71 250 150 138 79 250
144 250 146 0 3 -361 214 -447 261 -29 16 -51 33 -50 38 3 8 462 279 491 289
6 2 9 7 6 9 -5 6 -378 224 -457 268 -24 13 -43 27 -43 30 0 4 100 64 223 135
300 172 280 160 265 172 -7 5 -120 72 -250 148 -131 75 -238 140 -238 144 0 3
114 71 252 150 l252 145 47 -26 c26 -15 1935 -1139 4242 -2497 2308 -1359
4201 -2471 4207 -2471 7 0 39 16 71 35 33 19 93 48 132 63 40 16 290 157 557
314 267 157 863 508 1325 780 462 272 1274 750 1805 1063 1705 1004 2955 1740
3770 2219 437 258 809 476 825 487 l31 18 108 -60 c60 -32 111 -59 113 -59 2
0 -1 9 -7 19 -13 26 -13 97 1 124 6 12 39 50 72 84 34 35 68 81 77 103 17 45
19 45 777 490 183 107 331 199 330 203 -2 8 -2019 1197 -8059 4753 -1059 624
-1928 1134 -1930 1134 -1 -1 -1479 -870 -3284 -1933z m7797 -1310 c2468 -1453
4484 -2645 4481 -2648 -4 -4 -2023 -1194 -4487 -2645 -2739 -1613 -4490 -2638
-4505 -2638 -15 0 -1766 1025 -4505 2638 -2464 1451 -4483 2641 -4487 2645
-10 9 8985 5302 9001 5296 8 -3 2034 -1195 4502 -2648z"/>
<path d="M11328 21302 c-2210 -1302 -4014 -2370 -4010 -2374 4 -4 1815 -1071
4024 -2372 l4018 -2366 4017 2366 c2210 1301 4021 2368 4025 2372 8 8 -8014
4736 -8040 4739 -10 1 -1825 -1063 -4034 -2365z m4529 1461 c269 -157 492
-289 496 -293 8 -7 -445 -280 -463 -280 -5 0 -124 68 -264 151 -157 93 -263
149 -274 147 -10 -3 -129 -71 -266 -152 -136 -80 -251 -146 -256 -146 -13 0
-471 272 -467 277 13 13 984 582 994 582 7 1 232 -128 500 -286z m-838 -1500
l181 -107 -28 -17 c-15 -10 -794 -466 -1731 -1014 -1437 -840 -1708 -995
-1725 -987 -12 6 -97 55 -189 110 l-168 99 283 166 c2145 1256 3175 1856 3185
1857 6 0 92 -48 192 -107z m689 -342 l182 -109 -67 -39 c-498 -295 -3382
-1977 -3394 -1980 -23 -6 -384 210 -367 220 104 65 3446 2016 3453 2016 6 0
92 -48 193 -108z m575 -341 c97 -57 177 -107 177 -110 0 -3 -779 -461 -1730
-1017 l-1730 -1012 -186 111 c-102 60 -184 111 -182 113 13 12 3463 2025 3468
2023 4 -2 86 -50 183 -108z m590 -349 c86 -51 159 -97 162 -101 2 -4 -774
-463 -1726 -1019 l-1731 -1012 -183 108 c-102 59 -184 110 -184 113 0 3 779
460 1732 1017 1560 912 1734 1011 1752 999 11 -7 91 -54 178 -105z m575 -340
c95 -57 170 -107 165 -111 -10 -9 -3431 -2010 -3448 -2016 -18 -7 -377 208
-366 219 6 6 781 461 1723 1013 1021 598 1721 1002 1733 1000 11 -1 98 -49
193 -105z m575 -341 c154 -91 176 -106 161 -117 -63 -46 -3433 -2008 -3449
-2008 -28 1 -369 205 -358 216 19 19 3449 2019 3458 2017 6 -2 91 -50 188
-108z m-8428 -169 l236 -139 -98 -58 c-344 -202 -418 -246 -421 -249 -2 -2 74
-49 170 -106 95 -56 212 -125 261 -154 l87 -52 -222 -131 c-123 -72 -231 -134
-240 -137 -26 -10 -1016 575 -994 587 9 5 233 137 498 293 266 157 484 285
485 285 1 0 108 -63 238 -139z m12273 -157 c268 -158 488 -288 490 -289 2 -1
-220 -134 -493 -295 -340 -200 -501 -290 -513 -285 -9 3 -117 65 -240 137
l-222 131 87 52 c49 29 166 98 261 154 96 57 172 104 170 106 -3 3 -77 47
-421 249 l-98 58 233 138 c128 76 239 137 246 135 7 -3 232 -134 500 -291z
m-3277 -10 c98 -58 179 -110 179 -114 0 -4 -768 -457 -1707 -1005 -940 -549
-1717 -1004 -1728 -1011 -18 -12 -40 -1 -202 94 -100 59 -181 111 -180 116 2
7 3444 2025 3455 2026 2 0 84 -48 183 -106z m602 -357 c92 -54 167 -100 165
-102 -2 -1 -782 -457 -1735 -1014 l-1731 -1012 -179 106 c-98 58 -178 110
-178 115 0 6 776 464 1725 1019 1469 859 1728 1007 1745 998 11 -5 96 -55 188
-110z m-4098 -3333 l265 -156 265 156 265 156 234 -137 c176 -103 232 -141
223 -149 -7 -6 -231 -140 -499 -298 l-488 -286 -487 286 c-269 158 -493 292
-500 298 -9 8 46 45 220 148 128 75 233 137 235 137 1 1 122 -69 267 -155z"/>
<path d="M24050 17561 c-102 -60 -597 -351 -1100 -648 -503 -297 -2373 -1398
-4155 -2447 -1782 -1050 -3244 -1912 -3250 -1918 -13 -12 31 4 86 33 23 11
292 168 598 348 306 180 1065 627 1686 993 1488 876 2596 1529 3775 2223 531
313 1240 730 1575 927 l610 360 70 -38 c39 -20 90 -49 114 -63 41 -23 44 -23
37 -6 -32 77 -20 116 69 214 41 46 75 87 75 91 0 5 3 15 6 24 3 9 2 16 -2 16
-5 0 -92 -49 -194 -109z"/>
<path d="M24060 16971 c-102 -60 -225 -133 -275 -163 -49 -30 -1923 -1133
-4163 -2453 -2240 -1319 -4071 -2400 -4068 -2402 11 -12 -41 -42 2836 1652
459 270 1231 725 1715 1010 484 285 1080 636 1325 780 245 144 735 433 1090
642 355 209 804 474 999 588 l355 209 117 -62 117 -62 -15 39 c-26 66 -12 104
67 186 61 62 114 146 93 145 -5 -1 -91 -50 -193 -109z"/>
<path d="M24119 16409 c-68 -40 -189 -111 -269 -159 -80 -48 -1956 -1154
-4170 -2458 -2214 -1303 -4052 -2386 -4085 -2407 -57 -35 -44 -40 20 -7 41 20
782 456 2345 1377 151 89 671 395 1155 680 1523 897 3977 2342 4620 2721 l140
82 85 -45 c47 -25 100 -55 119 -66 l33 -20 -12 23 c-7 13 -13 44 -13 71 -1 52
9 67 102 169 44 48 70 95 58 106 -2 2 -59 -28 -128 -67z"/>
<path d="M24055 15774 c-110 -64 -204 -119 -210 -124 -5 -4 -1873 -1104 -4150
-2445 -2277 -1340 -4144 -2441 -4150 -2447 -13 -12 31 5 87 33 24 12 246 141
493 287 248 145 882 519 1410 830 528 311 1412 832 1965 1157 553 325 1439
847 1970 1160 531 313 1289 759 1684 992 l719 423 124 -66 c100 -52 121 -61
110 -42 -42 67 -23 128 69 226 32 35 64 79 71 98 7 19 11 34 10 34 -2 0 -93
-52 -202 -116z"/>
<path d="M24038 15167 c-114 -67 -2070 -1220 -4348 -2561 -2277 -1341 -4139
-2441 -4136 -2443 9 -10 177 86 896 509 415 245 1162 685 1660 978 1024 603
2501 1472 3465 2040 358 211 967 570 1355 798 388 229 759 447 824 485 l119
70 61 -31 c34 -17 89 -47 123 -66 l61 -35 -19 44 c-29 66 -16 103 75 203 40
45 76 93 78 107 3 14 2 25 -1 25 -3 0 -99 -56 -213 -123z"/>
<path d="M24049 14576 c-315 -184 -8367 -4928 -8444 -4975 -68 -41 -58 -47 17
-10 20 11 452 263 960 562 3229 1901 6681 3934 7043 4148 l250 147 65 -35 c36
-20 89 -49 118 -66 l54 -30 -16 31 c-34 65 -16 112 81 216 55 60 94 126 74
126 -4 0 -95 -51 -202 -114z"/>
<path d="M24060 13987 c-107 -63 -213 -125 -235 -139 -22 -15 -1892 -1116
-4155 -2448 -2263 -1332 -4119 -2427 -4125 -2432 -13 -12 32 5 87 33 40 20
467 271 2213 1299 586 345 969 571 2875 1693 355 209 962 567 1350 795 388
228 952 561 1254 739 l550 323 114 -61 c77 -40 113 -55 108 -44 -32 83 -20
121 68 213 40 42 78 92 84 110 6 17 10 32 9 32 -1 0 -90 -51 -197 -113z"/>
<path d="M24150 13442 c-52 -30 -214 -125 -360 -212 -286 -170 -8127 -4788
-8198 -4828 -24 -13 -41 -26 -39 -29 10 -9 164 77 626 349 262 154 870 512
1351 796 481 283 999 588 1150 677 151 89 671 395 1155 680 484 285 1256 740
1715 1010 459 270 1170 689 1580 930 l744 439 120 -63 c94 -51 116 -59 102
-40 -21 30 -21 98 1 129 9 14 43 54 76 90 55 60 82 103 75 120 -2 4 -46 -18
-98 -48z"/>
<path d="M24052 12787 c-977 -571 -8510 -5013 -8507 -5015 10 -10 176 84 925
525 448 264 1249 735 1780 1048 1309 771 2418 1424 3765 2217 622 366 1291
760 1488 877 198 116 364 211 370 211 6 0 57 -25 113 -55 107 -57 123 -63 107
-42 -18 22 -23 63 -12 102 8 27 33 62 79 110 59 61 98 120 87 131 -2 2 -90
-47 -195 -109z"/>
</g>
</svg>
